Coordinates
version=1
nRows=14
nColumns=42
inDegrees=yes

Units are S.I. units (second, meters, Newtons, ...)
If the header above contains a line with 'inDegrees', this indicates whether rotational values are in degrees (yes) or radians (no).

endheader
time	pelvis_tilt	pelvis_list	pelvis_rotation	pelvis_tx	pelvis_ty	pelvis_tz	hip_flexion_r	hip_adduction_r	hip_rotation_r	knee_angle_r	knee_adduction_r	knee_angle_r_beta	ankle_angle_r	subtalar_angle_r	mtp_angle_r	hip_flexion_l	hip_adduction_l	hip_rotation_l	knee_angle_l	knee_adduction_l	knee_angle_l_beta	ankle_angle_l	subtalar_angle_l	mtp_angle_l	lumbar_extension	lumbar_bending	lumbar_rotation	arm_flex_r	arm_add_r	arm_rot_r	elbow_flex_r	pro_sup_r	wrist_flex_r	wrist_dev_r	arm_flex_l	arm_add_l	arm_rot_l	elbow_flex_l	pro_sup_l	wrist_flex_l	wrist_dev_l
      1.10000000	      6.38165395	     -3.10154406	     -4.88473135	      0.16532510	      1.00953602	     -0.20022988	    -19.67376248	      1.05895812	      0.28179785	      5.06457685	     10.64743072	      0.08839354	     11.29580031	      6.99214451	     -7.57807428	     17.73456813	    -13.11667004	    -13.56032422	     23.07957675	     11.01885274	      0.40281460	      0.22329433	    -12.22398647	     -7.57807428	    -14.19642945	      0.04147748	     11.33733782	     13.45939130	    -21.41830133	     -7.31152304	     39.53493303	     90.00000001	      0.00000000	      0.00000000	    -18.43065554	    -12.87502225	     -3.15324936	     20.81351304	     90.00000001	      0.00000000	      0.00000000
      1.11000000	      6.41907299	     -3.15378553	     -5.30185930	      0.17882360	      1.00729181	     -0.19979849	    -20.50430919	      0.84421085	      0.42950833	      5.19639802	     10.70804534	      0.09069425	     11.72906017	      7.43255179	     -7.57485013	     17.30577645	    -13.01730164	    -14.36763045	     19.44919217	     11.25005323	      0.33945244	      0.20132797	    -10.77830222	     -7.57485013	    -14.27853765	     -0.08247858	     11.73703016	     13.97317954	    -22.05067832	     -6.60532576	     40.45180663	     90.00000001	      0.00000000	      0.00000000	    -19.22551041	    -12.69581003	     -3.75601937	     20.60190189	     90.00000001	      0.00000000	      0.00000000
      1.12000000	      6.12806028	     -3.38990223	     -5.67378440	      0.19220839	      1.00459120	     -0.19917957	    -20.90587069	      0.91772569	      0.63325007	      5.51113007	     10.69065050	      0.09618737	     12.12397592	      7.74125488	     -7.57150198	     17.32846160	    -13.22569120	    -14.97828086	     16.18801249	     11.64216717	      0.28253412	      0.28272447	     -9.02425163	     -7.57150198	    -14.02975767	      0.00507351	     12.08409289	     14.50208990	    -22.55144130	     -6.14049635	     41.19775943	     90.00000001	      0.00000000	      0.00000000	    -20.02756653	    -12.53547786	     -4.32212831	     20.41997312	     90.00000001	      0.00000000	      0.00000000
      1.13000000	      5.79373008	     -3.67295941	     -6.03925282	      0.20561811	      1.00185618	     -0.19851113	    -21.23288229	      1.06034407	      0.90025594	      5.89184639	     10.63111739	      0.10283212	     12.45013108	      7.95978806	     -7.56905033	     17.41875118	    -13.53313057	    -15.53579222	     13.24177015	     12.11496798	      0.23111249	      0.42142087	     -7.12429824	     -7.56905033	    -13.75044639	      0.13702162	     12.41791004	     14.96968277	    -23.01546839	     -5.70626464	     41.91755224	     90.00000001	      0.00000000	      0.00000000	    -20.78720387	    -12.40017912	     -4.77700926	     20.28516266	     90.00000001	      0.00000000	      0.00000000
      1.14000000	      5.53619407	     -3.88472666	     -6.42445723	      0.21933475	      0.99919714	     -0.19787841	    -21.63540175	      1.09857980	      1.18520373	      6.30917481	     10.58122979	      0.11011587	     12.73613522	      8.09694863	     -7.56696644	     17.42827741	    -13.77285040	    -16.11270399	     10.65237169	     12.59845603	      0.18591896	      0.67930717	     -5.23351079	     -7.56696644	    -13.51403663	      0.18420251	     12.74076105	     15.36314467	    -23.42403093	     -5.29016174	     42.61743636	     90.00000001	      0.00000000	      0.00000000	    -21.50733903	    -12.25763941	     -5.26671105	     20.12516141	     90.00000001	      0.00000000	      0.00000000
      1.15000000	      5.08748035	     -4.10802683	     -6.73937180	      0.23308548	      0.99639300	     -0.19720645	    -21.79966777	      1.22242082	      1.50235650	      6.78695900	     10.46600984	      0.11845478	     12.88955247	      8.18173852	     -7.56591420	     17.76116137	    -14.04775357	    -16.48304605	      8.58361734	     13.04068397	      0.14981238	      0.63824712	     -3.55036670	     -7.56591420	    -13.07387079	      0.26622265	     12.97199831	     15.70464504	    -23.71588985	     -5.04053276	     43.18503168	     90.00000001	      0.00000000	      0.00000000	    -22.22914684	    -12.17410437	     -5.56333677	     20.07208177	     90.00000001	      0.00000000	      0.00000000
      1.16000000	      5.11374073	     -4.07669706	     -7.20678528	      0.24726587	      0.99421247	     -0.19674049	    -22.44789817	      0.86639607	      1.91924777	      7.27270649	     10.47939509	      0.12693267	     13.05451642	      8.24201904	     -7.56415378	     17.48727712	    -13.96950700	    -17.12898480	      6.87377386	     13.34035347	      0.11996999	      1.06796839	     -1.75161206	     -7.56415378	    -13.10361584	      0.01293076	     13.27369703	     15.94684583	    -24.05227293	     -4.61042920	     43.93979311	     90.00000001	      0.00000000	      0.00000000	    -22.75508099	    -12.01501674	     -6.25049076	     19.81340862	     90.00000001	      0.00000000	      0.00000000
      1.17000000	      4.84898203	     -4.08507701	     -7.54484899	      0.26154760	      0.99180694	     -0.19615906	    -22.75843472	      0.70468218	      2.27866340	      7.82662171	     10.37062633	      0.13660032	     13.06838184	      8.22388427	     -7.56323100	     17.69422672	    -13.97224491	    -17.38244123	      5.80080225	     13.60355034	      0.10124310	      1.14755304	     -0.53371648	     -7.56323100	    -12.80394027	     -0.17005681	     13.46535034	     16.10343467	    -24.22551156	     -4.42756521	     44.45973467	     90.00000001	      0.00000000	      0.00000000	    -23.31156660	    -11.94823816	     -6.63735073	     19.71875709	     90.00000001	      0.00000000	      0.00000000
      1.18000000	      4.98747068	     -3.78044818	     -8.02688873	      0.27632066	      0.98993976	     -0.19595236	    -23.43892079	     -0.01413403	      2.69122262	      8.43339381	     10.41028833	      0.14719049	     13.07932437	      8.26703688	     -7.55656115	     17.57625353	    -13.59375982	    -18.47660076	      5.65542569	     13.63955306	      0.09870580	      1.82427901	      1.60497141	     -7.55656115	    -12.87422858	     -0.72838541	     13.68450583	     16.18219003	    -24.41501883	     -4.14536399	     45.08430320	     90.00000001	      0.00000000	      0.00000000	    -23.46747464	    -11.60483329	     -8.56807344	     19.01492320	     90.00000001	      0.00000000	      0.00000000
      1.19000000	      4.85333025	     -3.69755307	     -8.24911557	      0.29097946	      0.98786820	     -0.19556605	    -23.83000230	     -0.23870755	      3.11099816	      9.07162612	     10.23889067	      0.15832974	     12.92437864	      8.26652883	     -7.55615892	     17.85805757	    -13.44131941	    -18.23336851	      5.80166709	     13.72557670	      0.10125819	      1.83280043	      1.73754300	     -7.55615892	    -12.67864366	     -1.00774821	     13.69792428	     16.25411827	    -24.41606308	     -4.12229672	     45.44870961	     90.00000001	      0.00000000	      0.00000000	    -23.89978601	    -11.61507035	     -8.63243374	     18.93847928	     90.00000001	      0.00000000	      0.00000000
      1.20000000	      5.06909611	     -3.11552927	     -8.84688895	      0.30622808	      0.98635738	     -0.19552258	    -24.40510297	     -1.35467442	      3.56407377	      9.95237667	     10.34298309	      0.17370174	     12.73522719	      7.95998159	     -7.55416911	     17.48925061	    -12.63783312	    -18.30864320	      5.91680953	     13.54987742	      0.10326781	      1.61368825	      1.47140930	     -7.55416911	    -12.74439124	     -1.87670521	     14.04497346	     15.93110661	    -24.59440129	     -3.92319779	     46.25735116	     90.00000001	      0.00000000	      0.00000000	    -24.12410395	    -11.52723342	     -9.22379195	     18.71343502	     90.00000001	      0.00000000	      0.00000000
      1.21000000	      5.08468521	     -2.87574376	     -9.12466378	      0.32141768	      0.98474823	     -0.19526225	    -24.81074773	     -1.79465994	      4.04194043	     10.83035144	     10.15085023	      0.18902529	     12.34674410	      7.90157352	     -7.55364535	     17.60740670	    -12.28721181	    -17.82483802	      6.78311529	     13.49477164	      0.11838770	      1.41744268	      1.16300004	     -7.55364535	    -12.64911628	     -2.35169215	     14.09077455	     15.73451485	    -24.53070245	     -3.95523654	     46.63083433	     90.00000001	      0.00000000	      0.00000000	    -24.40578529	    -11.53451268	     -9.37152950	     18.69710199	     90.00000001	      0.00000000	      0.00000000
      1.22000000	      5.37065534	     -2.06646030	     -9.59992136	      0.33715032	      0.98362084	     -0.19546386	    -25.31130656	     -3.13092412	      4.25713311	     11.93372533	     10.29129547	      0.20828280	     11.80480213	      7.44628006	     -7.55048214	     17.24337283	    -11.18714407	    -17.28366267	      7.45189705	     13.27139660	      0.13006014	      0.26318818	     -0.84365033	     -7.55048214	    -12.70261492	     -3.45875089	     14.26508230	     15.23176944	    -24.49498821	     -4.03058786	     47.28428045	     90.00000001	      0.00000000	      0.00000000	    -24.30923771	    -11.43050869	    -10.61128040	     18.19459213	     90.00000001	      0.00000000	      0.00000000
      1.23000000	      5.43034345	     -1.76046743	     -9.84717142	      0.35274870	      0.98248912	     -0.19522636	    -25.63614809	     -3.60161445	      4.81239953	     12.98300070	     10.05636872	      0.22659611	     11.17241166	      7.41620517	     -7.55003573	     17.29906024	    -10.82562169	    -16.50316062	      8.70418448	     13.27809270	      0.15191668	     -0.30563046	     -1.12344922	     -7.55003573	    -12.60591704	     -4.01291020	     14.28225066	     14.81488324	    -24.33251369	     -4.07492852	     47.53382314	     90.00000001	      0.00000000	      0.00000000	    -24.43076915	    -11.51667373	    -10.70694977	     18.22910699	     90.00000001	      0.00000000	      0.00000000
